<?xml version="1.0" encoding="utf-8"?>
<!-- Generator: Adobe Illustrator 22.1.0, SVG Export Plug-In . SVG Version: 6.00 Build 0)  -->
<svg version="1.1" id="Calque_1" xmlns="http://www.w3.org/2000/svg" xmlns:xlink="http://www.w3.org/1999/xlink" x="0px" y="0px"
	 viewBox="0 0 189 63" style="enable-background:new 0 0 189 63;" xml:space="preserve">
<style type="text/css">
	.st0{fill:#FFFFFF;}
	.st1{fill:#FFAA02;}
</style>
<title>Artboard</title>
<desc>Created with Sketch.</desc>
<g id="Artboard">
	<g id="logo" transform="translate(1.000000, 1.000000)">
		<path id="Fill-1" class="st0" d="M81.7,47c-2,2.2-4.6,3.4-7.7,3.4c-3.1,0-5.7-1.1-7.7-3.4c-2-2.2-3-5.2-3-9c0-3.8,1-6.8,3-9
			c2-2.2,4.6-3.4,7.7-3.4c3.1,0,5.7,1.1,7.7,3.4c2,2.2,3,5.2,3,9C84.7,41.8,83.7,44.8,81.7,47 M94,26.1c-2-3.5-4.7-6.2-8.2-8.2
			C82.4,16,78.4,15,74,15c-4.4,0-8.4,1-11.9,2.9c-3.5,2-6.2,4.7-8.2,8.2c-2,3.5-3,7.4-3,11.9c0,4.4,1,8.4,3,11.9
			c2,3.5,4.7,6.2,8.2,8.2C65.7,60,69.6,61,74,61c4.4,0,8.4-1,11.8-2.9c3.5-2,6.2-4.7,8.2-8.2c2-3.5,3-7.4,3-11.9
			C97,33.6,96,29.6,94,26.1"/>
		<path id="Fill-4" class="st0" d="M39.1,20.7c3.3,3.2,4.9,8,4.9,14.4V60H31.5V37c0-3.4-0.7-6-2.2-7.7c-1.5-1.7-3.7-2.5-6.5-2.5
			c-3.1,0-5.7,1-7.5,3c-1.9,2-2.8,4.9-2.8,8.8V60H0V0h12.5v21c1.7-1.7,3.7-3,6-3.8c2.3-0.9,4.9-1.3,7.7-1.3
			C31.5,15.8,35.8,17.5,39.1,20.7"/>
		<path id="Fill-7" class="st1" d="M172.1,12.8c-1.4-1.4-2.1-3.2-2.1-5.3c0-2.1,0.7-3.9,2.1-5.3c1.4-1.4,3.2-2.2,5.4-2.2
			s4,0.7,5.4,2.1c1.4,1.4,2.1,3.1,2.1,5.2c0,2.2-0.7,4.1-2.1,5.6c-1.4,1.5-3.2,2.2-5.4,2.2S173.5,14.3,172.1,12.8"/>
		<path id="Fill-9" class="st0" d="M178.3,21.5c3.2,3.1,4.7,7.7,4.7,13.8V59h-12V37.1c0-3.3-0.4-5.9-1.8-7.6c-1-1.2-1.7-1.9-3-2.3
			c-0.4-0.1-0.8-0.1-0.8-0.1h-6h-1.1h-3.6h-5.8v31.9h-12.2V27h-7.6h-1.6h-8.9v31.9h-12.2V27H100v-9.4v-0.3h6.5v-1.6
			c0-4.8,1.4-8.6,4.3-11.5c2.8-2.8,6.8-4.2,12-4.2c1.8,0,3.6,0.2,5.2,0.6c1.6,0.4,3,1,4.1,1.7l-3.2,8.9c-1.4-1-3-1.5-4.9-1.5
			c-3.7,0-5.5,2-5.5,6.1v1.5h18.4v-1.6c0-4.8,1.4-8.6,4.3-11.5c2.8-2.8,6.8-4.2,12-4.2c1.8,0,3.6,0.2,5.2,0.6c1.6,0.4,3,1,4.1,1.7
			l-3.2,8.9c-1.4-1-3-1.5-4.9-1.5c-3.7,0-5.5,2-5.5,6.1v1.5h12.7c2.2,0,2.4,0,4.7,0C171.1,17.3,175.1,18.4,178.3,21.5"/>
	</g>
</g>
</svg>
